<?xml version="1.0" encoding="UTF-8" standalone="no" ?>
<!DOCTYPE svg PUBLIC "-//W3C//DTD SVG 1.1//EN" "http://www.w3.org/Graphics/SVG/1.1/DTD/svg11.dtd">
<svg xmlns="http://www.w3.org/2000/svg" xmlns:xlink="http://www.w3.org/1999/xlink" version="1.1" width="1080" height="1080" viewBox="0 0 1080 1080" xml:space="preserve">
<desc>Created with Fabric.js 5.2.4</desc>
<defs>
</defs>
<rect x="0" y="0" width="100%" height="100%" fill="transparent"></rect>
<g transform="matrix(1 0 0 1 540 540)" id="db8d62d8-5591-4243-82c7-37ac2750312e"  >
<rect style="stroke: none; stroke-width: 1; stroke-dasharray: none; stroke-linecap: butt; stroke-dashoffset: 0; stroke-linejoin: miter; stroke-miterlimit: 4; fill: rgb(255,255,255); fill-rule: nonzero; opacity: 1; visibility: hidden;" vector-effect="non-scaling-stroke"  x="-540" y="-540" rx="0" ry="0" width="1080" height="1080" />
</g>
<g transform="matrix(1 0 0 1 540 540)" id="efbf02a2-700f-4386-9e09-5152a2c94ef3"  >
</g>
<g transform="matrix(NaN NaN NaN NaN 0 0)"  >
<g style=""   >
</g>
</g>
<g transform="matrix(NaN NaN NaN NaN 0 0)"  >
<g style=""   >
</g>
</g>
<g transform="matrix(1 0 0 1 540 540)" id="3063882d-3659-46d6-94cd-a5f5fde45153"  >
<path style="stroke: rgb(0,0,0); stroke-width: 0; stroke-dasharray: none; stroke-linecap: butt; stroke-dashoffset: 0; stroke-linejoin: miter; stroke-miterlimit: 4; fill: rgb(230,230,222); fill-rule: nonzero; opacity: 1;" vector-effect="non-scaling-stroke"  transform=" translate(-7.5, -8)" d="M 6 0.278 C 6.199721073253721 0.5206864027898844 6.2314122148756645 0.8605738966852319 6.08 1.1360000000000006 C 5.501859194152184 2.197474738804573 5.1999340593817305 3.387293607034376 5.202000000000001 4.5959999999999965 C 5.202 8.617 8.48 11.873000000000001 12.52 11.873000000000001 C 13.046999999999999 11.873000000000001 13.559999999999999 11.818000000000001 14.052999999999999 11.713000000000001 C 14.361960903586231 11.646092980200418 14.680970083869143 11.770545944360173 14.863 12.029000000000002 C 15.056261807897453 12.299286906108808 15.043539704778556 12.665765554017685 14.831999999999999 12.922000000000002 C 13.243584694969112 14.873171066702167 10.85997213518771 16.003990958657646 8.344 16 C 3.734 16 0 12.286 0 7.71 C 0 4.266 2.114 1.312 5.124 0.06 C 5.431992746332789 -0.07016698556150675 5.788938843249808 0.01866206595437253 6 0.27799999999999947 z" stroke-linecap="round" />
</g>
<g transform="matrix(NaN NaN NaN NaN 0 0)"  >
<g style=""   >
</g>
</g>
<g transform="matrix(NaN NaN NaN NaN 0 0)"  >
<g style=""   >
</g>
</g>
</svg>