<?xml version="1.0" standalone="no"?>
<!DOCTYPE svg PUBLIC "-//W3C//DTD SVG 20010904//EN"
 "http://www.w3.org/TR/2001/REC-SVG-20010904/DTD/svg10.dtd">
<svg version="1.0" xmlns="http://www.w3.org/2000/svg"
 width="256.000000pt" height="256.000000pt" viewBox="0 0 256.000000 256.000000"
 preserveAspectRatio="xMidYMid meet">

<g transform="translate(0.000000,256.000000) scale(0.100000,-0.100000)"
fill="#000000" stroke="none">
<path d="M0 1280 l0 -1280 1280 0 1280 0 0 1280 0 1280 -1280 0 -1280 0 0
-1280z m1518 1176 c238 -51 437 -160 608 -330 156 -156 260 -338 316 -554 29
-108 31 -130 31 -287 0 -124 -4 -190 -16 -243 -56 -245 -161 -438 -331 -608
-170 -170 -363 -275 -608 -331 -102 -23 -374 -23 -476 0 -245 56 -438 161
-608 331 -170 170 -275 363 -331 608 -23 102 -23 374 0 476 56 245 161 438
331 608 176 175 405 296 631 333 39 6 81 13 95 15 51 9 288 -3 358 -18z"/>
<path d="M1186 1928 c-19 -40 -33 -74 -32 -74 0 -1 29 2 64 7 35 5 89 5 125 0
34 -5 63 -8 63 -7 1 0 -13 34 -32 74 l-33 72 -61 0 -61 0 -33 -72z"/>
<path d="M772 1787 l-42 -43 26 -77 26 -77 28 37 c30 41 102 111 138 135 23
16 22 16 -45 38 -37 13 -73 25 -78 27 -6 2 -29 -16 -53 -40z"/>
<path d="M1662 1803 c-72 -25 -73 -25 -50 -41 37 -24 88 -73 128 -124 l38 -48
26 77 26 77 -42 43 c-23 24 -45 43 -48 42 -3 0 -38 -12 -78 -26z"/>
<path d="M1128 1771 c-115 -37 -213 -112 -280 -215 -103 -159 -106 -384 -7
-541 99 -158 254 -245 439 -245 183 0 330 80 431 234 107 163 107 389 0 552
-69 105 -165 179 -280 214 -83 26 -223 26 -303 1z"/>
<path d="M633 1373 l-73 -35 0 -58 0 -58 73 -35 c39 -19 73 -34 73 -33 1 0 -2
29 -7 64 -5 35 -5 89 0 125 5 34 8 63 7 63 0 1 -34 -14 -73 -33z"/>
<path d="M1856 1388 c4 -13 7 -61 7 -108 0 -47 -3 -95 -7 -108 -7 -21 -5 -21
66 11 l73 33 0 64 0 64 -73 33 c-71 32 -73 32 -66 11z"/>
<path d="M756 893 l-26 -78 43 -42 42 -43 78 26 c76 26 78 27 55 42 -36 24
-108 94 -138 135 l-28 37 -26 -77z"/>
<path d="M1735 916 c-22 -27 -64 -69 -92 -92 l-52 -43 77 -25 77 -26 42 43 43
43 -25 73 c-14 41 -26 75 -27 76 -2 1 -21 -21 -43 -49z"/>
<path d="M1183 638 l33 -73 64 0 64 0 33 73 c31 70 32 73 11 66 -12 -3 -60 -6
-108 -6 -48 0 -96 3 -108 6 -21 7 -20 4 11 -66z"/>
</g>
</svg>
