<?xml version="1.0" encoding="UTF-8" standalone="no" ?>
<!DOCTYPE svg PUBLIC "-//W3C//DTD SVG 1.1//EN" "http://www.w3.org/Graphics/SVG/1.1/DTD/svg11.dtd">
<svg xmlns="http://www.w3.org/2000/svg" xmlns:xlink="http://www.w3.org/1999/xlink" version="1.1" width="1080" height="1080" viewBox="0 0 1080 1080" xml:space="preserve">
<desc>Created with Fabric.js 5.2.4</desc>
<defs>
</defs>
<g transform="matrix(1 0 0 1 540 540)" id="db8d62d8-5591-4243-82c7-37ac2750312e"  >
<rect style="stroke: none; stroke-width: 1; stroke-dasharray: none; stroke-linecap: butt; stroke-dashoffset: 0; stroke-linejoin: miter; stroke-miterlimit: 4; fill: rgb(255,255,255); fill-rule: nonzero; opacity: 1; visibility: hidden;" vector-effect="non-scaling-stroke"  x="-540" y="-540" rx="0" ry="0" width="1080" height="1080" />
</g>
<g transform="matrix(1 0 0 1 540 540)" id="efbf02a2-700f-4386-9e09-5152a2c94ef3"  >
</g>
<g transform="matrix(1 0 0 1 540 540)" id="b8926292-f8fc-47e8-8558-3e3acf25b1ee"  >
<path style="stroke: rgb(0,0,0); stroke-width: 0; stroke-dasharray: none; stroke-linecap: butt; stroke-dashoffset: 0; stroke-linejoin: miter; stroke-miterlimit: 4; fill: rgb(28,28,28); fill-rule: nonzero; opacity: 1;" vector-effect="non-scaling-stroke"  transform=" translate(-8, -8)" d="M 8 12 C 10.209138999323173 12 12 10.209138999323173 12 8 C 12 5.790861000676826 10.209138999323173 4 8 4 C 5.790861000676826 4 4 5.790861000676826 4 8 C 4 10.209138999323173 5.790861000676826 12 8 12 z M 8 0 C 8.276142374915397 0 8.5 0.22385762508460316 8.5 0.4999999999999999 L 8.5 2.5 C 8.5 2.7761423749153966 8.276142374915397 3 8 3 C 7.723857625084603 3 7.5 2.7761423749153966 7.5 2.5 L 7.5 0.5 C 7.5 0.22385762508460327 7.723857625084603 0 8 0 z M 8 13 C 8.276142374915397 13 8.5 13.223857625084603 8.5 13.5 L 8.5 15.5 C 8.5 15.776142374915397 8.276142374915397 16 8 16 C 7.723857625084603 16 7.5 15.776142374915397 7.5 15.5 L 7.5 13.5 C 7.5 13.223857625084603 7.723857625084603 13 8 13 z M 16 8 C 16 8.276142374915397 15.776142374915397 8.5 15.5 8.5 L 13.5 8.5 C 13.223857625084603 8.5 13 8.276142374915397 13 8 C 13 7.723857625084603 13.223857625084603 7.5 13.5 7.5 L 15.5 7.5 C 15.776142374915397 7.5 16 7.723857625084603 16 8 z M 3 8 C 3 8.276142374915397 2.7761423749153966 8.5 2.5 8.5 L 0.5 8.5 C 0.22385762508460327 8.5 0 8.276142374915397 0 8 C 0 7.723857625084603 0.22385762508460327 7.5 0.5 7.5 L 2.5 7.5 C 2.7761423749153966 7.5 3 7.723857625084603 3 8 z M 13.657 2.343 C 13.852190969166431 2.5382499257429068 13.852190969166431 2.854750074257093 13.657 3.05 L 12.243 4.465 C 12.0474911985599 4.660232659065185 11.730732659065186 4.660008801440101 11.535499999999999 4.4645 C 11.340267340934814 4.268991198559899 11.3404911985599 3.9522326590651855 11.536 3.7569999999999997 L 12.95 2.343 C 13.145249925742906 2.1478090308335682 13.461750074257093 2.147809030833568 13.657 2.3429999999999995 z M 4.464 11.536 C 4.659190969166432 11.731249925742906 4.659190969166432 12.047750074257094 4.464 12.243 L 3.05 13.657 C 2.8538105565178458 13.846486104754057 2.5419576114894378 13.843776186948558 2.3490907122704394 13.65090928772956 C 2.156223813051441 13.458042388510561 2.1535138952459434 13.146189443482154 2.343 12.95 L 3.7569999999999997 11.536 C 3.9522499257429065 11.340809030833569 4.268750074257092 11.340809030833569 4.4639999999999995 11.536 z M 13.657 13.657 C 13.461750074257093 13.852190969166433 13.145249925742906 13.852190969166433 12.95 13.657 L 11.536 12.243 C 11.34651389524593 12.046810556517848 11.349223813051424 11.734957611489431 11.542090712270426 11.542090712270427 C 11.73495761148943 11.349223813051424 12.046810556517848 11.34651389524593 12.243 11.536 L 13.657 12.95 C 13.852190969166433 13.145249925742906 13.852190969166433 13.461750074257093 13.657 13.657 z M 4.464 4.465 C 4.268750074257094 4.660190969166431 3.952249925742908 4.660190969166432 3.7570000000000006 4.465 L 2.343 3.05 C 2.213021707773443 2.9244627648692356 2.1608937014008203 2.7385610539289047 2.20665142170853 2.5637463380533516 C 2.252409142016239 2.3889316221777985 2.388931622177798 2.252409142016239 2.5637463380533516 2.20665142170853 C 2.7385610539289047 2.1608937014008203 2.9244627648692356 2.213021707773443 3.05 2.343 L 4.4639999999999995 3.7569999999999997 C 4.558041700687634 3.8508042630101667 4.610893783685418 3.9781727391417583 4.610893783685418 4.111 C 4.610893783685418 4.243827260858241 4.558041700687634 4.371195736989833 4.4639999999999995 4.465 z" stroke-linecap="round" />
</g>
<g transform="matrix(NaN NaN NaN NaN 0 0)"  >
<g style=""   >
</g>
</g>
<g transform="matrix(NaN NaN NaN NaN 0 0)"  >
<g style=""   >
</g>
</g>
</svg>